<?xml version="1.0" standalone="no"?>
<!DOCTYPE svg PUBLIC "-//W3C//DTD SVG 1.1//EN" "http://www.w3.org/Graphics/SVG/1.1/DTD/svg11.dtd" >
<svg xmlns="http://www.w3.org/2000/svg">
<metadata>Generated by IcoMoon</metadata>
<defs>
<font id="icomoon" horiz-adv-x="1024">
<font-face units-per-em="1024" ascent="960" descent="-64" />
<missing-glyph horiz-adv-x="1024" />
<glyph unicode="&#x20;" horiz-adv-x="512" d="" />
<glyph unicode="&#xe900;" glyph-name="fm" horiz-adv-x="1780" d="M1011.591 353.721l33.082-82.535c74.727 50.379 124.077 136.759 124.077 235.079 0 155.464-123.425 281.418-275.695 281.457s-275.643-125.954-275.682-281.457c-0.001-0.283-0.002-0.617-0.002-0.952 0-93.575 45.423-176.541 115.423-228.051l0.783-0.55 33.408 83.422c-39.822 36.090-64.73 88.009-64.73 145.746 0 0.131 0 0.262 0 0.393v-0.020c0.156 107.562 85.442 194.607 190.801 194.815 105.398-0.196 190.644-87.241 190.801-194.802 0-0.121 0-0.265 0-0.408 0-61.195-28.020-115.846-71.931-151.822l-0.346-0.275zM893.054 960c-248.388 0-455.247-200.16-455.247-453.774 0-169.789 92.676-317.954 228.471-397.4l39.43 98.398c-96.365 63.14-160.326 173.36-160.534 299.001 0.326 196.184 155.751 354.881 347.881 355.246 192.13-0.378 347.529-159.022 347.881-355.246-0.235-129.134-67.689-242.014-168.564-304.176l38.987-97.33c138.011 78.403 231.365 228.771 231.365 401.466 0 253.615-201.281 453.722-449.695 453.774zM869.683 439.332l-155.712-503.332h358.165l-155.712 503.332z" />
<glyph unicode="&#xe901;" glyph-name="music" d="M853.319 696.136v170.659h-341.319v-26.915h-0.001v-426.639c-35.654 26.781-79.969 42.654-127.994 42.654-117.816 0-213.325-95.508-213.325-213.325s95.508-213.325 213.325-213.325 213.325 95.508 213.325 213.325c0 0.027-0.001 0.052-0.001 0.079v453.486h255.99z" />
<glyph unicode="&#xe902;" glyph-name="person" d="M915.377 618.536c-22.051 52.174-53.611 99.026-93.805 139.252-40.196 40.228-87.012 71.816-139.148 93.886-53.994 22.856-111.333 34.445-170.424 34.445s-116.429-11.589-170.424-34.445c-52.136-22.070-98.952-53.657-139.148-93.886-40.195-40.227-71.756-87.078-93.805-139.252-22.834-54.030-34.412-111.407-34.412-170.537s11.578-116.506 34.412-170.536c22.050-52.174 53.61-99.024 93.805-139.252s87.012-71.815 139.148-93.886c53.994-22.856 111.332-34.445 170.423-34.445s116.429 11.589 170.424 34.445c52.136 22.070 98.952 53.657 139.148 93.886 40.194 40.227 71.756 87.078 93.805 139.252 22.835 54.030 34.412 111.407 34.412 170.536s-11.577 116.507-34.411 170.537zM861.502 300.231c-19.104-45.204-46.459-85.805-81.304-120.68-3.347-3.35-6.763-6.608-10.215-9.819-25.215 55.121-123.402 165.325-258.993 165.325-141.206 0-235.256-106.14-257.987-164.381-3.105 2.909-6.182 5.853-9.202 8.875-34.846 34.874-62.2 75.476-81.304 120.68-19.773 46.786-29.799 96.502-29.799 147.768s10.026 100.982 29.799 147.769c19.104 45.204 46.459 85.806 81.304 120.681 34.844 34.873 75.411 62.247 120.574 81.366 46.741 19.786 96.408 29.818 147.624 29.818s100.883-10.032 147.624-29.818c45.163-19.118 85.73-46.493 120.574-81.366 34.846-34.874 62.2-75.477 81.304-120.681 19.773-46.787 29.799-96.502 29.799-147.769 0.002-51.265-10.024-100.982-29.798-147.768zM512.489 655.090c-75.362 0-145.459-64.882-145.459-144.928 0-80.033 70.097-144.93 145.459-144.93 75.356 0 142.454 64.897 142.454 144.93 0 80.046-67.098 144.928-142.454 144.928z" />
<glyph unicode="&#xe903;" glyph-name="artist" d="M512 363.854c-164.342 0-298.073 133.686-298.073 298.028s133.731 298.118 298.073 298.118 298.073-133.776 298.073-298.118-133.709-298.028-298.073-298.028zM512 911.239c-137.456 0-249.29-111.856-249.29-249.357 0-137.456 111.834-249.267 249.29-249.267 137.478 0 249.312 111.811 249.312 249.267 0.023 137.501-111.834 249.357-249.312 249.357zM939.718-63.865c-13.465 0-24.38 10.915-24.38 24.38v0c0 112.263-44.991 216.534-126.688 293.513-4.718 4.449-7.656 10.741-7.656 17.72 0 6.474 2.528 12.358 6.651 16.717l-0.011-0.011c4.452 4.746 10.763 7.702 17.764 7.702 6.475 0 12.359-2.529 16.719-6.652l-0.011 0.011c91.562-86.325 141.993-203.17 141.993-329 0-13.465-10.915-24.38-24.38-24.38v0zM84.282-63.865c-13.465 0-24.38 10.915-24.38 24.38v0c0 249.29 202.786 452.099 452.076 452.099 13.465 0 24.38-10.915 24.38-24.38s-10.915-24.38-24.38-24.38v0c-222.404 0-403.338-180.957-403.338-403.338 0-0.013 0-0.029 0-0.045 0-13.44-10.895-24.335-24.335-24.335-0.008 0-0.016 0-0.024 0h0.001z" />
<glyph unicode="&#xe904;" glyph-name="playImage" d="M115.297-60.522c-8.023 0-15.691 2.020-22.514 6.073-14.366 8.534-22.605 24.671-22.605 44.274v909.649c0 19.602 8.24 35.74 22.605 44.274 14.385 8.547 32.539 8.052 49.811-1.355l0.191-0.105 820.673-456.059c17.539-9.658 27.598-24.809 27.598-41.58 0-16.772-10.059-31.925-27.602-41.583l-820.861-456.161c-9.079-4.945-18.405-7.427-27.297-7.427zM121.344 895.67v-902.040l811.605 451.020-811.605 451.020z" />
<glyph unicode="&#xe905;" glyph-name="play" d="M512 960c-282.772 0-512-229.241-512-512s229.228-512 512-512c282.759 0 512 229.241 512 512s-229.241 512-512 512zM512-10.105c-253.009 0-458.105 205.11-458.105 458.105s205.096 458.105 458.105 458.105c252.995 0 458.105-205.11 458.105-458.105s-205.11-458.105-458.105-458.105zM377.263 232.421l377.263 215.552-377.263 215.606v-431.158z" />
<glyph unicode="&#xe906;" glyph-name="playList" d="M139.692 788.338c0 47.862 33.913 67.442 75.362 43.511l589.835-340.542c41.45-23.931 41.45-63.091 0-87.022l-589.836-340.544c-41.449-23.931-75.362-4.351-75.362 43.511v681.086z" />
<glyph unicode="&#xe907;" glyph-name="playlist" d="M512 960c-282.77 0-512-229.23-512-512s229.23-512 512-512c282.77 0 512 229.23 512 512s-229.23 512-512 512zM512 0c-247.424 0-448 200.576-448 448s200.576 448 448 448 448-200.576 448-448-200.576-448-448-448zM661.27 480.077c30.484-17.6 30.484-46.4 0-64l-221.844-128.078c-30.484-17.6-55.426-3.199-55.426 32.001v256.158c0 35.2 24.941 49.6 55.426 32l221.844-128.081z" />
<glyph unicode="&#xe908;" glyph-name="player_minimize" d="M568.496 432.175h-42.667v-362.667h85.333v217.003l217.003-217.003 60.331 60.352-217.003 216.982h217.003v85.333h-320zM405.333 830v-217.003l-217.002 217.003-60.331-60.352 216.981-216.981h-216.981v-85.333h362.667v362.666h-85.334z" />
<glyph unicode="&#xe909;" glyph-name="stop" d="M511.994 952.046c-278.371 0-504.041-225.67-504.041-504.046s225.67-504.046 504.041-504.046c278.382 0 504.052 225.67 504.052 504.046s-225.67 504.046-504.052 504.046zM511.994-10.271c-253.087 0-458.265 205.173-458.265 458.271 0 253.093 205.173 458.271 458.265 458.271 253.104 0 458.277-205.173 458.277-458.271s-205.173-458.271-458.277-458.271zM455.55 273.006c0-12.471-10.109-22.58-22.58-22.58h-67.74c-12.471 0-22.58 10.109-22.58 22.58v0 349.989c0 12.471 10.109 22.58 22.58 22.58v0h67.74c12.471 0 22.58-10.109 22.58-22.58v0-349.989zM681.35 273.006c0-12.471-10.109-22.58-22.58-22.58v0h-67.74c-12.471 0-22.58 10.109-22.58 22.58v349.989c0 12.471 10.109 22.58 22.58 22.58h67.74c12.471 0 22.58-10.109 22.58-22.58v0-349.989z" />
<glyph unicode="&#xe90a;" glyph-name="stoplist" d="M512-64c-282.766 0-512 229.234-512 512s229.234 512 512 512c282.766 0 512-229.234 512-512s-229.234-512-512-512zM426.667 604.444c0 23.552-19.115 42.667-42.667 42.667s-42.667-19.115-42.667-42.667v-341.333c0-23.552 19.115-42.667 42.667-42.667s42.667 19.115 42.667 42.667v341.333zM654.222 604.444c0 23.552-19.115 42.667-42.667 42.667s-42.667-19.115-42.667-42.667v-341.333c0-23.552 19.115-42.667 42.667-42.667s42.667 19.115 42.667 42.667v341.333z" />
<glyph unicode="&#xe90b;" glyph-name="stopList" horiz-adv-x="1535" d="M553.577 75.509v763.948h101.839v-763.948h-101.839zM910.073 75.509v763.948h101.839v-763.948h-101.839z" />
<glyph unicode="&#xe90c;" glyph-name="playmusic" d="M500.864 7.36c-239.648 0-434.656 194.976-434.656 434.624 0 239.68 195.008 434.624 434.656 434.624 239.68 0 434.656-194.944 434.656-434.624s-195.008-434.624-434.656-434.624zM500.864 940.64c-274.944 0-498.624-223.744-498.624-498.656 0-274.944 223.68-498.624 498.624-498.624s498.656 223.68 498.656 498.624c0 274.912-223.68 498.624-498.656 498.624zM404.864 633.984c-17.673 0-32-14.327-32-32v0-320c0-17.673 14.327-32 32-32s32 14.327 32 32v0 320c0 17.673-14.327 32-32 32v0zM596.864 633.984c-17.673 0-32-14.327-32-32v0-320c0-17.673 14.327-32 32-32s32 14.327 32 32v0 320c0 17.673-14.327 32-32 32v0z" />
<glyph unicode="&#xe90d;" glyph-name="search" d="M397.312 215.087c-181.776 0-329.697 147.921-329.697 329.697s147.921 329.697 329.697 329.697 329.728-147.921 329.728-329.697c0-84.34-31.837-164.616-89.616-225.994-59.795-63.892-144.639-103.706-238.782-103.706-0.457 0-0.914 0.001-1.37 0.003h0.070zM986.112-0.14l-0.621 0.683-1.148 1.21-282.593 296.898c54.372 66.489 87.319 152.34 87.319 245.888 0 0.086 0 0.172 0 0.258v-0.013c0 215.971-175.756 391.758-391.758 391.758-215.971 0-391.727-175.756-391.727-391.758s175.756-391.758 391.758-391.758c96.566 0 190.092 36.461 261.616 100.6l282.283-296.464c5.989-6.299 14.274-10.302 23.614-9.93 17.253 0.683 30.658 15.205 29.975 32.458-0.402 7.861-3.677 14.888-8.787 20.113l0.006-0.006 0.093 0.062z" />
<glyph unicode="&#xe90e;" glyph-name="album" d="M459.838 457.681c0 30.658 24.948 55.606 55.606 55.606s55.544-24.948 55.544-55.606-24.886-55.606-55.544-55.606c-30.696 0.035-55.571 24.91-55.606 55.603v0.003zM633.080 457.681c0 64.884-52.752 117.667-117.636 117.667-64.957-0.071-117.596-52.71-117.667-117.66v-0.007c0.071-64.957 52.71-117.596 117.66-117.667h0.007c64.938 0.088 117.552 52.724 117.605 117.662v0.005zM515.413 24.56c-238.809 0-433.090 194.312-433.090 433.090 0 238.84 194.25 433.183 433.121 433.183 238.809 0 433.121-194.343 433.121-433.183 0-238.778-194.312-433.090-433.121-433.090zM515.444 952.863c-273.098 0-495.182-222.115-495.182-495.213 0-273.036 222.146-495.182 495.182-495.182s495.182 222.177 495.182 495.182c0 273.067-222.177 495.244-495.182 495.244zM806.353 488.712c-17.138 0-31.030-13.893-31.030-31.030v0-0.031c0-143.298-116.581-259.848-259.879-259.848-17.138 0-31.030-13.893-31.030-31.030s13.893-31.030 31.030-31.030v0c177.493 0 321.939 144.415 321.939 321.939 0 17.138-13.893 31.030-31.030 31.030v0zM515.413 717.56c17.138 0 31.030 13.893 31.030 31.030s-13.893 31.030-31.030 31.030v0c-177.493 0-321.877-144.415-321.908-321.908v-0.031c0-17.138 13.893-31.030 31.030-31.030s31.030 13.893 31.030 31.030v0c0 143.298 116.581 259.879 259.879 259.879z" />
<glyph unicode="&#xe90f;" glyph-name="singCircle" d="M773.598 756.224l-0.273-0.444c-5.488 4.054-12.387 6.489-19.855 6.489-0.172 0-0.343-0.001-0.514-0.004h0.026c-18.978-0.785-33.724-16.725-32.973-35.772 0.602-11.266 6.63-21.006 15.499-26.714l0.134-0.081-0.102-0.171c100.874-68.313 166.298-182.356 166.298-311.679 0-0.069 0-0.139 0-0.208v0.011c0-207.019-168.448-375.467-375.467-375.467-27.819 0-27.819 0-54.34 2.901-90.453 9.899-152.61 58.982-155.546 61.201-100.465 68.389-165.581 182.216-165.581 311.252 0 0.039 0 0.079 0 0.118v-0.006c0 201.421 159.539 365.841 358.844 374.647l-41.984-40.823 0.819-0.853c-9.253-6.143-15.27-16.519-15.27-28.301 0-0.323 0.005-0.644 0.013-0.965l-0.001 0.047c0.751-18.978 16.725-33.758 35.669-33.041 10.779 0.575 20.154 6.118 25.938 14.364l0.072 0.108 0.307-0.341 128.649 124.996-128.273 128.41-0.41-0.41c-6.204 7.016-15.226 11.417-25.277 11.417-0.366 0-0.73-0.006-1.093-0.017l0.053 0.001c-18.944-0.751-33.69-16.725-32.973-35.703 0.496-10.234 5.458-19.216 12.965-25.1l0.074-0.056 45.227-45.261c-239.070-6.485-431.65-202.513-431.65-443.119 0-147.627 73.114-285.15 193.195-366.114 3.072-2.56 77.551-62.191 188.757-74.308 29.423-3.209 31.13-3.311 61.781-3.311 244.668 0 443.733 199.066 443.733 443.733 0 0.088 0 0.192 0 0.296 0 152.802-77.294 287.55-194.915 367.28l-1.556 0.995zM542.071 559.172c-6.468-0.427-12.346-2.64-17.235-6.144l0.1 0.068-0.171 0.307-106.803-69.7 0.171-0.273c-9.586-6.12-15.851-16.703-15.851-28.749 0-0.333 0.005-0.665 0.014-0.995l-0.001 0.049c0.751-18.944 16.725-33.724 35.669-32.973 6.453 0.413 12.321 2.615 17.201 6.11l-0.1-0.068 0.205-0.273 53.999 35.26v-249.856h0.034c0-0.478-0.239-0.887-0.205-1.365 0.383-18.597 15.549-33.526 34.202-33.526 18.893 0 34.208 15.316 34.208 34.208 0 0.24-0.002 0.48-0.007 0.718l0.001-0.036h0.034v0.171c0 0.41 0.205 0.751 0.205 1.161 0 0.273-0.171 0.478-0.205 0.785v310.75c0 0.478 0.205 0.887 0.205 1.331-0.741 18.416-15.85 33.065-34.38 33.065-0.453 0-0.905-0.009-1.354-0.026l0.065 0.002z" />
<glyph unicode="&#xe910;" glyph-name="headset" d="M65.056 223.808c0 85.696 56.96 119.68 100.096 133.28-8.32-41.664-11.904-88.864-11.904-133.28 0-45.984 3.936-94.88 12.896-137.632-28.16 5.696-51.072 16.896-67.456 34.464-37.472 40.16-33.76 100.16-33.632 103.168zM924.96 120.64c-16.384-17.6-39.296-28.8-67.456-34.464 8.96 42.752 12.896 91.648 12.896 137.6 0 44.352-3.616 91.392-11.872 132.992 42.88-13.92 100.096-48.672 100.16-135.36 0-0.576 3.712-60.608-33.728-100.8zM772.384 35.072c-13.792 19.84-33.984 85.12-33.984 188.736s20.16 168.896 33.984 188.768c13.76-19.872 34.016-85.152 34.016-188.8 0-103.552-20.224-168.832-34.016-188.704zM251.264 412.576c13.76-19.872 33.984-85.152 33.984-188.8 0-103.552-20.192-168.832-33.984-188.704-13.792 19.84-34.016 85.12-34.016 188.736s20.224 168.896 34.016 188.768zM187.776 18.464c15.168-31.456 35.936-51.648 63.488-51.648 72.32 0 97.984 138.432 97.984 256.96 0 118.624-25.664 257.056-97.984 257.056-27.968 0-48.896-20.864-64.128-53.12-20.709-3.164-39.261-8.241-56.878-15.175l1.774 0.615v197.824c8.544 32.832 82.24 277.888 377.216 277.888 295.36 0 366.080-247.68 374.016-279.712v-193.024c-13.294 4.834-29.046 8.871-45.297 11.398l-1.455 0.186c-15.232 32.256-36.16 53.12-64.128 53.12-72.32 0-97.984-138.432-97.984-257.024 0-118.56 25.664-256.992 97.984-256.992 27.52 0 48.32 20.16 63.488 51.648 57.824 3.904 103.68 23.68 136.448 59.104 56.416 61.056 50.464 145.216 50.24 146.24 0 76.576-33.152 126.88-75.296 158.656v230.4l-0.704 6.688c-0.736 3.328-75.616 333.312-437.312 333.312-361.408 0-439.68-327.68-440.448-330.944l-0.736-245.888c-38.080-31.68-66.976-79.456-66.944-149.696-0.32-3.552-6.24-87.712 50.176-148.8 32.736-35.392 78.624-55.168 136.448-59.072z" />
<glyph unicode="&#xe911;" glyph-name="microphone" d="M175.228 261.291c77.195-78.156 181.591-129.288 297.815-138.021l1.566-0.094v-118.784h-80.151c-0.465 0-0.838 0.217-1.303 0.217-16.716-0.702-30.001-14.423-30.001-31.248 0-17.272 14.002-31.273 31.273-31.273 0.447 0 0.893 0.009 1.336 0.028l-0.063-0.002c0.31 0 0.559 0.186 0.869 0.217h215.040c0.434 0 0.838-0.248 1.303-0.217 16.968 0.395 30.573 14.244 30.573 31.271 0 17.275-14.004 31.279-31.279 31.279-0.647 0-1.289-0.020-1.926-0.058l0.088 0.004c-0.31-0.031-0.559-0.217-0.869-0.217h-72.828v118.288c118.722 6.361 229.035 55.637 312.785 141.436 5.824 5.648 9.439 13.545 9.439 22.286 0 17.138-13.893 31.030-31.030 31.030-0.537 0-1.070-0.014-1.6-0.041l0.074 0.003c-8.793-0.391-16.581-4.392-21.97-10.546l-0.031-0.036c-74.18-76.126-177.708-123.347-292.264-123.347-0.451 0-0.901 0.001-1.352 0.002h0.069c-0.424-0.002-0.926-0.003-1.428-0.003-115.296 0-219.415 47.851-293.583 124.776l-0.119 0.124-0.31-0.341c-5.59 5.759-13.404 9.332-22.052 9.332-0.418 0-0.835-0.008-1.249-0.025l0.059 0.002c-16.682-0.704-29.94-14.399-29.94-31.19 0-0.457 0.010-0.911 0.029-1.363l-0.002 0.064c0.519-9.761 5.521-18.255 12.968-23.518l0.096-0.065zM330.38 709.648c0.106 95.311 77.342 172.547 172.642 172.653h0.010c95.324-0.088 172.578-77.331 172.684-172.642v-230.751c-0.106-95.322-77.36-172.564-172.675-172.653h-0.008c-95.311 0.106-172.547 77.342-172.653 172.642v230.751zM503.032 244.193c129.427 0 234.744 105.317 234.744 234.713v230.741c0 129.396-105.286 234.713-234.744 234.713-129.396 0-234.713-105.286-234.713-234.713v-230.741c0-129.396 105.286-234.713 234.713-234.713z" />
<glyph unicode="&#xe912;" glyph-name="reduce" horiz-adv-x="1056" d="M302.080 410.656v-0.672h488v0.672c17.302 0 31.328 14.026 31.328 31.328s-14.026 31.328-31.328 31.328v0 0.672h-488v-0.672c-17.302 0-31.328-14.026-31.328-31.328s14.026-31.328 31.328-31.328v0zM534.496 883.776c243.584 0 441.792-198.176 441.792-441.792 0-243.584-198.208-441.76-441.792-441.76s-441.792 198.176-441.792 441.76c0 243.616 198.208 441.792 441.792 441.792zM534.496-63.776c278.88 0 505.792 226.88 505.792 505.76 0.032 278.912-226.848 505.792-505.792 505.792-278.88 0-505.792-226.88-505.792-505.792 0-278.88 226.912-505.76 505.792-505.76z" />
<glyph unicode="&#xe913;" glyph-name="mute" horiz-adv-x="1056" d="M672.8 229.504v386.304c92.864-15.36 164-96 164-193.152s-71.136-177.792-164-193.152zM300.8 212.672c0-17.664-14.4-32-32-32h-144c-17.632 0-32 14.336-32 32v400c0 17.6 14.368 32 32 32h144c17.6 0 32-14.4 32-32v-400zM359.232 643.616l249.568 173.76v-766.816l-248.32 135.136c2.528 8.64 4.32 17.568 4.32 27.008v400c0 10.88-2.24 21.184-5.568 30.944zM672.8 680.48v198.176h-0.448c0 17.426-14.126 31.552-31.552 31.552v0c-6.72 0-12.576-2.56-17.696-6.112l-0.576 0.832-303.168-211.040c-14.321 9.214-31.791 14.715-50.542 14.784h-144.018c-52.928 0-96-43.072-96-96v-400c0-52.96 43.072-96 96-96h144c20 0 38.56 6.176 53.952 16.64l302.72-164.8 0.448 0.832c4.263-2.543 9.377-4.096 14.844-4.223l0.036-0.001c17.418 0.018 31.534 14.134 31.552 31.55v0.002h0.448v168.128c128.288 15.872 228 125.344 228 257.824s-99.712 241.984-228 257.824zM1022.080 927.616c-5.709 5.706-13.594 9.235-22.304 9.235s-16.595-3.529-22.304-9.235v0l-0.32 0.32-58.688-58.688-58.688 58.688-0.32-0.32c-5.601 5.149-13.105 8.305-21.346 8.305-17.443 0-31.584-14.141-31.584-31.584 0-8.233 3.15-15.73 8.311-21.352l-0.021 0.023h0.032l-0.32-0.32 58.688-58.688-58.688-58.688 0.32-0.32c-5.708-5.714-9.237-13.605-9.237-22.32s3.53-16.606 9.238-22.32v0c5.72-5.683 13.602-9.195 22.304-9.195s16.584 3.512 22.306 9.197l-0.002-0.002 0.32-0.288 58.688 58.688 58.688-58.688 0.32 0.32c5.758-6.038 13.865-9.792 22.848-9.792 17.426 0 31.552 14.126 31.552 31.552 0 8.983-3.754 17.090-9.779 22.836l-0.013 0.012 0.32 0.32-58.688 58.688 58.688 58.688-0.32 0.32c5.706 5.709 9.235 13.594 9.235 22.304s-3.529 16.595-9.235 22.304v0z" />
<glyph unicode="&#xe914;" glyph-name="forward" d="M510.432 15.168c-239.648 0-434.624 194.976-434.624 434.656 0 239.648 194.976 434.624 434.624 434.624 239.68 0 434.656-194.976 434.656-434.624 0-239.68-195.008-434.656-434.656-434.656zM510.432 948.448c-274.912 0-498.592-223.712-498.592-498.624 0-274.976 223.68-498.656 498.624-498.656s498.656 223.68 498.656 498.656c0 274.88-223.68 498.624-498.656 498.624zM318.432 338.464v222.688l159.040-68.544v-85.6l-159.040-68.544zM730.464 449.792l-189.024-105.472v210.976l189.024-105.504zM811.744 477.76l-286.688 160-0.256-0.448c-4.383 2.696-9.666 4.344-15.323 4.479l-0.037 0.001c-17.655 0-31.968-14.313-31.968-31.968 0-0.011 0-0.023 0-0.034v0.002-47.488l-178.368 76.832c-3.726 1.645-8.071 2.602-12.64 2.602-17.654 0-31.969-14.296-32-31.943v-320.003c0.031-17.65 14.346-31.946 32-31.946 4.569 0 8.914 0.957 12.846 2.683l-0.206-0.080v-0.032l178.336 76.896v-47.52h0.032c0-17.673 14.327-32 32-32v0c5.694 0.148 10.974 1.795 15.497 4.558l-0.137-0.078 0.224-0.416 286.656 160-0.224 0.416c9.889 5.397 16.514 15.67 16.64 27.503v0.017c-0.118 11.852-6.746 22.129-16.475 27.437l-0.165 0.083 0.224 0.448z" />
<glyph unicode="&#xe915;" glyph-name="back" d="M509.696 15.168c-239.68 0-434.656 194.976-434.656 434.656 0 239.648 195.008 434.624 434.656 434.624s434.624-194.976 434.624-434.624c0-239.68-194.976-434.656-434.624-434.656zM509.696 948.448c-274.944 0-498.656-223.712-498.656-498.624 0-274.976 223.68-498.656 498.656-498.656 274.944 0 498.624 223.68 498.624 498.656 0 274.88-223.68 498.624-498.624 498.624zM542.688 492.608l158.976 68.544v-222.72l-158.944 68.608v85.6zM478.688 555.296v-210.976l-189.024 105.504 189.024 105.472zM733.664 641.792c-4.571-0.005-8.916-0.97-12.844-2.704l0.204 0.080-178.336-76.864v47.52c-0.018 17.659-14.338 31.968-32 31.968v0c-5.695-0.119-10.981-1.771-15.492-4.556l0.132 0.076-0.224 0.448-286.72-160 0.256-0.448c-9.903-5.381-16.536-15.664-16.64-27.506v-0.014c0-11.968 6.88-22.016 16.64-27.52l-0.224-0.384 286.688-160 0.224 0.384c4.383-2.696 9.666-4.344 15.323-4.479l0.037-0.001c17.673 0 32 14.327 32 32v0 47.52l178.336-76.896c3.726-1.645 8.071-2.602 12.64-2.602 17.654 0 31.969 14.296 32 31.943v320.099c-0.018 17.659-14.338 31.968-32 31.968v0z" />
<glyph unicode="&#xe916;" glyph-name="list" horiz-adv-x="1220" d="M50.255 865.044c0.369-0.013 0.803-0.020 1.238-0.020 21.491 0 38.912 17.421 38.912 38.912s-17.421 38.912-38.912 38.912c-0.435 0-0.869-0.007-1.301-0.021l0.063 0.002c-20.951-0.688-37.674-17.837-37.674-38.892s16.723-38.205 37.611-38.891l0.063-0.002zM371.87 865.044v-0.473l784.463 0.473c21.501 0 38.932 17.43 38.932 38.932s-17.43 38.932-38.932 38.932v0 0.394l-784.463-0.394c-21.501 0-38.932-17.43-38.932-38.932s17.43-38.932 38.932-38.932v0zM50.255 633.659c0.369-0.013 0.803-0.020 1.238-0.020 21.491 0 38.912 17.421 38.912 38.912s-17.421 38.912-38.912 38.912c-0.435 0-0.869-0.007-1.301-0.021l0.063 0.002c-20.951-0.688-37.674-17.837-37.674-38.892s16.723-38.205 37.611-38.891l0.063-0.002zM371.87 633.659v-0.473l784.463 0.473c21.501 0 38.932 17.43 38.932 38.932s-17.43 38.932-38.932 38.932v0 0.354l-784.463-0.394c-21.501 0-38.932-17.43-38.932-38.932s17.43-38.932 38.932-38.932v0zM50.255 402.274c0.369-0.013 0.803-0.020 1.238-0.020 21.491 0 38.912 17.421 38.912 38.912s-17.421 38.912-38.912 38.912c-0.435 0-0.869-0.007-1.301-0.021l0.063 0.002c-20.951-0.688-37.674-17.837-37.674-38.892s16.723-38.205 37.611-38.891l0.063-0.002zM371.87 402.274v-0.473l784.463 0.473c21.501 0 38.932 17.43 38.932 38.932s-17.43 38.932-38.932 38.932v0 0.394l-784.463-0.394c-21.501 0-38.932-17.43-38.932-38.932s17.43-38.932 38.932-38.932v0zM50.255 170.89c0.369-0.013 0.803-0.020 1.238-0.020 21.491 0 38.912 17.421 38.912 38.912s-17.421 38.912-38.912 38.912c-0.435 0-0.869-0.007-1.301-0.021l0.063 0.002c-20.951-0.688-37.674-17.837-37.674-38.892s16.723-38.205 37.611-38.891l0.063-0.002zM371.87 170.89v-0.473l784.463 0.473c21.501 0 38.932 17.43 38.932 38.932s-17.43 38.932-38.932 38.932v0 0.394l-784.463-0.394c-21.501 0-38.932-17.43-38.932-38.932s17.43-38.932 38.932-38.932v0zM50.255-60.495c0.369-0.013 0.803-0.020 1.238-0.020 21.491 0 38.912 17.421 38.912 38.912s-17.421 38.912-38.912 38.912c-0.435 0-0.869-0.007-1.301-0.021l0.063 0.002c-20.951-0.688-37.674-17.837-37.674-38.892s16.723-38.205 37.611-38.891l0.063-0.002zM371.87-60.495v-0.473l784.463 0.473c21.501 0 38.932 17.43 38.932 38.932s-17.43 38.932-38.932 38.932v0 0.394l-784.463-0.394c-21.501 0-38.932-17.43-38.932-38.932s17.43-38.932 38.932-38.932v0z" />
<glyph unicode="&#xe917;" glyph-name="listCycle" d="M905.616 435.034c0 132.931-65.365 256.56-174.885 331.941v0.031c-1.24 0.868-2.357 1.922-3.628 2.791l-0.248-0.403c-4.989 3.683-11.26 5.895-18.047 5.895-0.152 0-0.305-0.001-0.457-0.003h0.023c-16.704-0.705-29.978-14.417-29.978-31.23 0-0.434 0.009-0.867 0.026-1.297l-0.002 0.062c0.538-10.245 6.031-19.1 14.11-24.268l0.123-0.074-0.124-0.186c91.637-62.051 151.071-165.647 151.071-283.125 0-0.058 0-0.115 0-0.173v0.009c0-185.273-148.559-336.189-332.778-340.654l39.194 39.194c6.847 5.402 11.321 13.549 11.75 22.754l0.003 0.068c0.016 0.377 0.026 0.82 0.026 1.265 0 16.807-13.279 30.513-29.917 31.198l-0.062 0.002c-0.256 0.008-0.558 0.012-0.86 0.012-9.146 0-17.359-3.996-22.988-10.337l-0.028-0.032-0.372 0.372-116.59-116.652 116.9-113.582 0.31 0.31c5.32-7.589 13.836-12.625 23.551-13.144l0.077-0.003c0.349-0.014 0.759-0.022 1.171-0.022 16.834 0 30.559 13.308 31.23 29.977l0.002 0.061c0.006 0.224 0.009 0.487 0.009 0.751 0 10.726-5.463 20.176-13.757 25.721l-0.112 0.071 0.744 0.775-40.341 39.225c218.451 4.434 394.856 183.164 394.856 402.67zM487.411 775.347l-38.14-37.086 0.744-0.775c-8.406-5.581-13.872-15.007-13.872-25.709 0-0.293 0.004-0.585 0.012-0.876l-0.001 0.043c0.682-17.24 15.163-30.698 32.403-29.985 9.787 0.514 18.303 5.539 23.563 13.019l0.065 0.098 0.279-0.31 116.869 113.582-116.528 116.59-0.372-0.31c-5.65 6.356-13.848 10.34-22.976 10.34-0.327 0-0.654-0.005-0.978-0.015l0.048 0.001c-17.209-0.651-30.605-15.194-29.954-32.434 0.471-9.308 4.986-17.474 11.809-22.833l0.067-0.051 41.055-41.086c-217.18-5.923-392.096-183.97-392.096-402.546 0-134.11 66.45-259.072 177.676-334.266l34.729 51.411c-91.249 62.129-150.389 165.524-150.389 282.732 0 0.043 0 0.087 0 0.13v-0.007c0 182.947 144.931 332.344 325.987 340.344z" />
<glyph unicode="&#xe918;" glyph-name="删除" d="M499.104 876.608c239.68 0 434.656-194.976 434.656-434.624s-195.008-434.656-434.656-434.656-434.656 195.008-434.656 434.656 195.008 434.624 434.656 434.624zM499.104-56.672c274.944 0 498.656 223.712 498.656 498.656s-223.68 498.624-498.656 498.624c-274.944 0-498.656-223.68-498.656-498.624s223.712-498.656 498.656-498.656zM278.72 255.488h-0.032c-5.797-5.793-9.382-13.798-9.382-22.64 0-17.677 14.33-32.006 32.006-32.006 8.834 0 16.833 3.579 22.624 9.367v0l186.496 186.56 186.528-186.56c5.79-5.79 13.789-9.371 22.624-9.371 17.67 0 31.995 14.325 31.995 31.995 0 8.835-3.581 16.834-9.371 22.624v0l-186.496 186.528 186.496 186.496c5.79 5.79 9.371 13.789 9.371 22.624 0 17.67-14.325 31.995-31.995 31.995-8.835 0-16.834-3.581-22.624-9.371l-186.528-186.496-186.496 186.496c-5.787 5.783-13.78 9.36-22.608 9.36-17.664 0-31.984-14.32-31.984-31.984 0-8.836 3.583-16.835 9.376-22.624l186.464-186.464-186.464-186.496z" />
<glyph unicode="&#xe919;" glyph-name="set" d="M89.299 863.624c0 16.565 13.523 30.118 30.118 30.118h256c16.565 0 30.118-13.553 30.118-30.118v-256c0-16.625-13.553-30.118-30.118-30.118h-256c-16.595 0-30.118 13.493-30.118 30.118v256zM119.416 517.271h256c49.815 0 90.353 40.508 90.353 90.353v256c0 49.784-40.538 90.353-90.353 90.353h-256c-49.815 0-90.353-40.568-90.353-90.353v-256c0-49.845 40.538-90.353 90.353-90.353zM943.887 607.624c0-16.625-13.553-30.118-30.118-30.118h-256c-16.595 0-30.118 13.493-30.118 30.118v256c0 16.565 13.523 30.118 30.118 30.118h256c16.565 0 30.118-13.553 30.118-30.118v-256zM913.769 953.976h-256c-49.815 0-90.353-40.568-90.353-90.353v-256c0-49.845 40.538-90.353 90.353-90.353h256c49.815 0 90.353 40.508 90.353 90.353v256c0 49.784-40.538 90.353-90.353 90.353zM943.887 54.182c0-16.565-13.553-30.118-30.118-30.118h-256c-16.595 0-30.118 13.553-30.118 30.118v256c0 16.595 13.523 30.118 30.118 30.118h256c16.565 0 30.118-13.523 30.118-30.118v-256zM913.769 400.535h-256c-49.815 0-90.353-40.538-90.353-90.353v-256c0-49.815 40.538-90.353 90.353-90.353h256c49.815 0 90.353 40.538 90.353 90.353v256c0 49.815-40.538 90.353-90.353 90.353zM89.299 310.182c0 16.595 13.523 30.118 30.118 30.118h256c16.565 0 30.118-13.523 30.118-30.118v-256c0-16.565-13.553-30.118-30.118-30.118h-256c-16.595 0-30.118 13.553-30.118 30.118v256zM119.416-36.171h256c49.815 0 90.353 40.538 90.353 90.353v256c0 49.815-40.538 90.353-90.353 90.353h-256c-49.815 0-90.353-40.538-90.353-90.353v-256c0-49.815 40.538-90.353 90.353-90.353z" />
<glyph unicode="&#xe91a;" glyph-name="sounds" d="M714.422 238.972v398.765c95.86-15.855 169.29-99.097 169.29-199.383s-73.431-183.527-169.29-199.383zM330.422 221.597c0-18.234-14.831-33.032-33.032-33.032h-148.645c-18.168 0-33.032 14.798-33.032 33.032v412.903c0 18.168 14.865 33.032 33.032 33.032h148.645c18.201 0 33.032-14.865 33.032-33.032v-412.903zM390.772 666.442l257.652 179.365v-791.552l-256.33 139.495c2.577 8.919 4.426 18.135 4.426 27.879v412.903c0 11.231-2.279 21.867-5.748 31.942zM714.488 704.495v204.569h-0.495c0 0.010 0 0.021 0 0.033 0 17.97-14.567 32.537-32.537 32.537-0.012 0-0.023 0-0.035 0h0.002c-6.937 0-12.982-2.643-18.267-6.309l-0.595 0.859-312.915-217.848c-14.783 9.511-32.816 15.19-52.172 15.261h-148.664c-54.668 0-99.097-44.461-99.097-99.097v-412.903c0-54.668 44.428-99.097 99.097-99.097h148.645c20.612 0 39.771 6.375 55.659 17.177l312.518-170.116 0.429 0.859c4.401-2.625 9.68-4.228 15.323-4.36l0.037-0.001c17.988 0 32.57 14.582 32.57 32.57v0h0.462v173.551c132.459 16.384 235.355 129.387 235.355 266.141s-102.929 249.79-235.355 266.141z" />
<glyph unicode="&#xe91b;" glyph-name="refresh" d="M56.934 381.338c0-147.627 73.148-285.184 193.195-366.148 3.106-2.526 77.585-62.157 188.791-74.274 29.389-3.209 31.13-3.311 61.747-3.311 244.668 0 443.733 199.066 443.733 443.733 0 0.071 0 0.155 0 0.239 0 152.816-77.308 287.576-194.949 367.303l-1.557 0.995-0.273-0.41c-5.502 4.034-12.405 6.454-19.875 6.454-0.165 0-0.329-0.001-0.494-0.004h0.025c-18.383-0.758-33-15.844-33-34.345 0-0.478 0.010-0.953 0.029-1.426l-0.002 0.068c0.58-11.29 6.63-21.053 15.532-26.748l0.135-0.081-0.137-0.171c100.874-68.32 166.298-182.369 166.298-311.698 0-0.063 0-0.126 0-0.189v0.010c0-207.019-168.448-375.467-375.467-375.467-27.785 0-27.785 0-54.34 2.901-90.453 9.865-152.61 58.948-155.546 61.201-100.465 68.389-165.581 182.216-165.581 311.252 0 0.039 0 0.079 0 0.118v-0.006c0 201.387 159.539 365.841 358.844 374.647l-41.984-40.823 0.819-0.853c-9.253-6.151-15.27-16.532-15.27-28.319 0-0.316 0.004-0.632 0.013-0.946l-0.001 0.046c0.751-18.978 16.725-33.792 35.669-33.041 10.779 0.575 20.154 6.118 25.938 14.364l0.072 0.108 0.307-0.341 128.649 124.996-128.273 128.41-0.41-0.41c-6.192 7.016-15.205 11.418-25.247 11.418-0.376 0-0.751-0.006-1.125-0.018l0.054 0.001c-18.944-0.751-33.69-16.725-32.973-35.703 0.496-10.234 5.458-19.216 12.965-25.1l0.074-0.056 45.227-45.261c-239.070-6.485-431.616-202.513-431.616-443.119z" />
<glyph unicode="&#xe91c;" glyph-name="random" horiz-adv-x="1063" d="M911.478 277.346c-7.177 8.072-17.588 13.132-29.182 13.132-0.402 0-0.803-0.006-1.202-0.018l0.058 0.001c-21.898-0.827-38.912-19.298-38.085-41.196 0.473-11.934 6.38-22.055 14.966-28.987l47.183-47.222c-53.555 8.351-100.894 30.307-139.772 62.198l0.508-0.404-434.255 468.086c-68.038 77.345-167.218 125.897-277.738 125.913h-0.003c-21.752 0-39.385-17.633-39.385-39.385s17.633-39.385 39.385-39.385v0h0.039c83.653 0 163.249-36.116 219.215-99.879l433.625-468.007 8.271-7.483c53.067-43.841 119.495-73.313 192.351-81.605l1.697-0.157-52.539-51.082 0.985-0.945c-10.677-7.088-17.619-19.061-17.619-32.654 0-0.372 0.005-0.743 0.016-1.113l-0.001 0.054c0.866-21.898 19.298-38.991 41.157-38.124 12.426 0.663 23.231 7.061 29.889 16.574l0.083 0.125 0.394-0.394 148.48 144.226-148.047 148.204-0.473-0.473zM911.163 929.241c-6.757 9.639-17.574 16.036-29.914 16.695l-0.098 0.004c-0.443 0.018-0.963 0.028-1.486 0.028-21.373 0-38.798-16.907-39.629-38.077l-0.002-0.076c-0.009-0.316-0.014-0.688-0.014-1.062 0-13.581 6.944-25.541 17.475-32.522l0.144-0.090-0.985-1.024 48.601-47.262c-85.738-10.396-160.939-49.052-217.447-106.225l-0.035-0.035-128.551-139.343 0.197-0.197c-6.528-6.906-10.564-16.228-10.634-26.492v-0.014c0-21.752 17.633-39.385 39.385-39.385v0c11.399 0.062 21.631 5.006 28.721 12.845l0.030 0.034 0.197-0.197 126.582 137.295c43.459 43.959 100.94 73.972 165.18 82.776l1.496 0.168-52.224-52.303c-8.747-6.854-14.473-17.218-15.041-28.936l-0.003-0.090c-0.866-21.898 16.148-40.33 38.046-41.196 0.341-0.011 0.742-0.017 1.144-0.017 11.594 0 22.006 5.060 29.148 13.092l0.035 0.040 0.473-0.433 148.047 148.165-148.48 144.226-0.394-0.394zM415.783 405.11c-11.356-0.038-21.56-4.939-28.644-12.729l-0.028-0.032-0.197 0.158-133.75-144.266c-51.698-48.972-121.691-79.085-198.717-79.085-0.172 0-0.345 0-0.517 0h0.027v-0.473c-0.866 0.039-1.575 0.473-2.442 0.473-21.752 0-39.385-17.633-39.385-39.385s17.633-39.385 39.385-39.385v0c0.866 0 1.575 0.473 2.442 0.473v-0.473c94.562 0 184.517 35.722 255.094 102.4l135.601 146.156-0.197 0.158c6.593 6.918 10.665 16.291 10.713 26.615v0.009c0 21.752-17.633 39.385-39.385 39.385v0z" />
<glyph unicode="&#xe91d;" glyph-name="like" horiz-adv-x="1165" d="M318.641 856.082c129.101-0.141 233.72-104.76 233.86-233.847v-0.013h0.212c0-19.579 15.872-35.452 35.452-35.452s35.452 15.872 35.452 35.452v0c0 0.247-0.106 0.424-0.106 0.671 0.521 128.8 104.974 233.030 233.81 233.19h0.015c129.086-0.161 233.684-104.772 233.825-233.847v-0.014c0-80.543-50.494-142.442-98.622-191.1l-404.621-367.51-401.055 364.685c-61.299 61.722-102.118 118.29-102.118 193.924 0.141 129.101 104.76 233.72 233.847 233.86h0.013zM587.811-31.832l453.561 411.966c56.073 56.638 120.408 135.345 120.408 242.088 0 167.901-136.58 304.481-304.446 304.481-116.216-0.1-217.2-65.218-268.549-160.939l-0.799-1.63c-52.147 97.351-153.131 162.469-269.334 162.569h-0.014c-167.865 0-304.481-136.58-304.481-304.481 0-105.649 58.968-179.553 123.939-244.913l449.713-409.176z" />
<glyph unicode="&#xe91e;" glyph-name="notes" d="M216.727 188.747c72.102 0 133.030-39.063 133.030-85.323s-60.928-85.353-133.030-85.353c-72.102 0-133.030 39.093-133.030 85.353s60.928 85.323 133.030 85.323zM811.972 100.683c-72.102 0-133.030 39.063-133.030 85.323s60.928 85.323 133.030 85.323c72.102 0 133-39.063 133-85.323s-60.898-85.323-133-85.323zM409.992 653.192v155.467l534.98 76.71v-155.467l-534.98-76.71zM216.727-42.165c108.363 0 193.265 63.97 193.265 145.589v488.93l534.98 76.71v-376.772c-34.424 24.395-80.926 39.273-133 39.273-108.363 0-193.265-63.94-193.265-145.559s84.902-145.559 193.265-145.559 193.235 63.94 193.235 145.559v731.347h-0.030c0 0.422 0.211 0.783 0.181 1.205-0.636 16.214-13.934 29.117-30.246 29.117-0.421 0-0.84-0.009-1.256-0.026l0.060 0.002c-0.964-0.030-1.747-0.512-2.711-0.632l-0.392 2.861-592.173-84.811c-0.241 0-0.452-0.12-0.723-0.151l-2.409-0.331 0.090-0.211c-14.667-2.070-25.829-14.532-25.841-29.604v-0.001h-0.030v-0.211c0-0.331-0.181-0.632-0.181-0.964 0-0.241 0.151-0.422 0.181-0.632v-623.255c-34.424 24.395-80.956 39.273-133.030 39.273-108.363 0-193.265-63.94-193.265-145.559s84.902-145.589 193.265-145.589z" />
<glyph unicode="&#xe91f;" glyph-name="addMusic" d="M765.248 473.312v0.672h-223.552v223.552h-0.64c0 17.32-14.040 31.36-31.36 31.36s-31.36-14.040-31.36-31.36v0h-0.64v-223.552h-200.448v-0.672c-17.302 0-31.328-14.026-31.328-31.328s14.026-31.328 31.328-31.328v0-0.672h200.448v-200.448h0.64c0-17.32 14.040-31.36 31.36-31.36s31.36 14.040 31.36 31.36v0h0.64v200.448h223.552v0.672c17.302 0 31.328 14.026 31.328 31.328s-14.026 31.328-31.328 31.328v0zM509.696 0.192c-243.584 0-441.792 198.176-441.792 441.792 0 243.584 198.208 441.76 441.792 441.76s441.76-198.176 441.76-441.76c0-243.616-198.176-441.792-441.76-441.792zM509.696 947.744c-278.88 0-505.792-226.88-505.792-505.76 0-278.912 226.88-505.792 505.792-505.792 278.88 0 505.76 226.88 505.76 505.792 0 278.88-226.88 505.76-505.76 505.76z" />
<glyph unicode="&#xe920;" glyph-name="stopmusic" d="M500.864 876.608c239.68 0 434.656-194.976 434.656-434.624s-195.008-434.656-434.656-434.656-434.624 195.008-434.624 434.656 194.976 434.624 434.624 434.624zM500.864-56.672c274.944 0 498.656 223.712 498.656 498.656s-223.68 498.624-498.656 498.624c-274.944 0-498.624-223.68-498.624-498.624s223.68-498.656 498.624-498.656zM436.864 547.488l189.024-105.504-189.024-105.504v211.008zM404.864 249.984c5.695 0.136 10.977 1.784 15.495 4.557l-0.135-0.077 0.224-0.416 286.72 160-0.256 0.416c9.894 5.391 16.522 15.668 16.64 27.504v0.016c-0.111 11.854-6.742 22.134-16.475 27.438l-0.165 0.082 0.224 0.416-286.688 160-0.224-0.416c-4.379 2.709-9.665 4.361-15.327 4.479l-0.033 0.001c-17.673 0-32-14.327-32-32v0-320c0-17.673 14.327-32 32-32v0z" />
</font>
</defs>
</svg>
