<?xml version="1.0" encoding="iso-8859-1"?>
<!-- Generator: Adobe Illustrator 19.0.0, SVG Export Plug-In . SVG Version: 6.00 Build 0)  -->
<svg xmlns="http://www.w3.org/2000/svg" xmlns:xlink="http://www.w3.org/1999/xlink" version="1.1" id="Capa_1" x="0px" y="0px" viewBox="0 0 800 800" xml:space="preserve" width="400px" height="400px">
	<g style="fill: #000; stroke: #3f3f3f; stroke-width: 1;">
		<circle cx="400" cy="400" r="380" />
		<circle cx="400" cy="400" r="370" />
		<circle cx="400" cy="400" r="360" />
		<circle cx="400" cy="400" r="350" />
		<circle cx="400" cy="400" r="340" />
		<circle cx="400" cy="400" r="330" />
		<circle cx="400" cy="400" r="320" />
		<circle cx="400" cy="400" r="310" />
		<circle cx="400" cy="400" r="300" />
		<circle cx="400" cy="400" r="290" />
		<circle cx="400" cy="400" r="280" />
		<circle cx="400" cy="400" r="270" />
		<circle cx="400" cy="400" r="260" />
		<circle cx="400" cy="400" r="250" />
		<circle cx="400" cy="400" r="240" />
		<circle cx="400" cy="400" r="230" />
		<circle cx="400" cy="400" r="220" />
		<circle cx="400" cy="400" r="210" />
		<circle cx="400" cy="400" r="200" />
	</g>
</svg>
